<mxfile host="65bd71144e">
    <diagram id="0AgHF8OSL8mvPBgLefRE" name="Page-1">
        <mxGraphModel dx="736" dy="855" grid="1" gridSize="10" guides="1" tooltips="1" connect="1" arrows="1" fold="1" page="1" pageScale="1" pageWidth="850" pageHeight="1100" math="0" shadow="0">
            <root>
                <mxCell id="0"/>
                <mxCell id="1" parent="0"/>
                <mxCell id="2" value="APP" style="whiteSpace=wrap;html=1;" vertex="1" parent="1">
                    <mxGeometry x="280" y="50" width="120" height="60" as="geometry"/>
                </mxCell>
                <mxCell id="3" value="Input Form&lt;br&gt;(route)" style="whiteSpace=wrap;html=1;" vertex="1" parent="1">
                    <mxGeometry x="180" y="160" width="120" height="60" as="geometry"/>
                </mxCell>
                <mxCell id="4" value="Event Bulletin&lt;br&gt;Board (route)" style="whiteSpace=wrap;html=1;" vertex="1" parent="1">
                    <mxGeometry x="350" y="160" width="120" height="60" as="geometry"/>
                </mxCell>
                <mxCell id="5" value="Profile container&lt;br&gt;(route)" style="whiteSpace=wrap;html=1;" vertex="1" parent="1">
                    <mxGeometry x="510" y="160" width="120" height="60" as="geometry"/>
                </mxCell>
                <mxCell id="10" style="edgeStyle=none;html=1;exitX=0.5;exitY=1;exitDx=0;exitDy=0;" edge="1" parent="1" source="7" target="9">
                    <mxGeometry relative="1" as="geometry"/>
                </mxCell>
                <mxCell id="7" value="Profile cards" style="whiteSpace=wrap;html=1;" vertex="1" parent="1">
                    <mxGeometry x="510" y="270" width="120" height="60" as="geometry"/>
                </mxCell>
                <mxCell id="8" value="Navigation Bar" style="whiteSpace=wrap;html=1;" vertex="1" parent="1">
                    <mxGeometry x="20" y="160" width="120" height="60" as="geometry"/>
                </mxCell>
                <mxCell id="9" value="Show Single User Profile" style="whiteSpace=wrap;html=1;" vertex="1" parent="1">
                    <mxGeometry x="510" y="390" width="120" height="60" as="geometry"/>
                </mxCell>
                <mxCell id="11" value="on click" style="text;html=1;align=center;verticalAlign=middle;resizable=0;points=[];autosize=1;strokeColor=none;fillColor=none;" vertex="1" parent="1">
                    <mxGeometry x="520" y="350" width="60" height="20" as="geometry"/>
                </mxCell>
            </root>
        </mxGraphModel>
    </diagram>
</mxfile>